<?xml version="1.0" encoding="UTF-8"?>
<svg xmlns="http://www.w3.org/2000/svg" xmlns:xlink="http://www.w3.org/1999/xlink" width="20px" height="20px" viewBox="0 0 20 20" version="1.1">
<g id="surface1">
<path style=" stroke:none;fill-rule:nonzero;fill:rgb(0%,0%,0%);fill-opacity:1;" d="M 17.257812 3.046875 C 17.257812 3.046875 18.875 2.414062 18.742188 3.945312 C 18.695312 4.578125 18.292969 6.789062 17.976562 9.175781 L 16.898438 16.257812 C 16.898438 16.257812 16.808594 17.292969 16 17.472656 C 15.191406 17.65625 13.976562 16.84375 13.75 16.664062 C 13.570312 16.527344 10.378906 14.5 9.253906 13.507812 C 8.9375 13.234375 8.578125 12.695312 9.296875 12.0625 L 14.019531 7.554688 C 14.558594 7.011719 15.097656 5.75 12.851562 7.285156 L 6.554688 11.566406 C 6.554688 11.566406 5.835938 12.019531 4.488281 11.613281 L 1.5625 10.710938 C 1.5625 10.710938 0.484375 10.035156 2.328125 9.359375 C 6.824219 7.238281 12.355469 5.074219 17.257812 3.046875 Z M 17.257812 3.046875 "/>
</g>
</svg>
