<?xml version="1.0" encoding="UTF-8"?>
<svg xmlns="http://www.w3.org/2000/svg" xmlns:xlink="http://www.w3.org/1999/xlink" width="20px" height="20px" viewBox="0 0 20 20" version="1.1">
<g id="surface1">
<path style=" stroke:none;fill-rule:nonzero;fill:rgb(0%,0%,0%);fill-opacity:1;" d="M 13.070312 0 L 6.929688 0 C 1.328125 0 0 1.328125 0 6.929688 L 0 13.070312 C 0 18.671875 1.328125 20 6.929688 20 L 13.070312 20 C 18.671875 20 20 18.671875 20 13.070312 L 20 6.929688 C 20 1.328125 18.660156 0 13.070312 0 Z M 16.144531 14.265625 L 14.695312 14.265625 C 14.144531 14.265625 13.972656 13.832031 12.984375 12.828125 C 12.125 11.996094 11.746094 11.886719 11.53125 11.886719 C 11.234375 11.886719 11.148438 11.96875 11.148438 12.378906 L 11.148438 13.691406 C 11.148438 14.042969 11.039062 14.253906 10.105469 14.253906 C 8.566406 14.253906 6.859375 13.324219 5.660156 11.589844 C 3.851562 9.046875 3.359375 7.140625 3.359375 6.75 C 3.359375 6.535156 3.441406 6.339844 3.851562 6.339844 L 5.304688 6.339844 C 5.671875 6.339844 5.8125 6.507812 5.957031 6.902344 C 6.675781 8.976562 7.875 10.796875 8.367188 10.796875 C 8.550781 10.796875 8.636719 10.714844 8.636719 10.246094 L 8.636719 8.101562 C 8.578125 7.113281 8.058594 7.027344 8.058594 6.675781 C 8.058594 6.507812 8.199219 6.339844 8.421875 6.339844 L 10.710938 6.339844 C 11.019531 6.339844 11.132812 6.507812 11.132812 6.871094 L 11.132812 9.765625 C 11.132812 10.078125 11.273438 10.1875 11.359375 10.1875 C 11.542969 10.1875 11.699219 10.078125 12.035156 9.738281 C 13.082031 8.566406 13.828125 6.761719 13.828125 6.761719 C 13.925781 6.546875 14.097656 6.351562 14.464844 6.351562 L 15.917969 6.351562 C 16.355469 6.351562 16.453125 6.574219 16.355469 6.886719 C 16.171875 7.734375 14.390625 10.246094 14.390625 10.246094 C 14.238281 10.5 14.179688 10.609375 14.390625 10.894531 C 14.546875 11.105469 15.058594 11.546875 15.394531 11.9375 C 16.015625 12.644531 16.496094 13.238281 16.621094 13.648438 C 16.765625 14.054688 16.554688 14.265625 16.144531 14.265625 Z M 16.144531 14.265625 "/>
</g>
</svg>
