<?xml version="1.0" encoding="UTF-8"?>
<svg xmlns="http://www.w3.org/2000/svg" xmlns:xlink="http://www.w3.org/1999/xlink" width="20px" height="20px" viewBox="0 0 20 20" version="1.1">
<g id="surface1">
<path style=" stroke:none;fill-rule:nonzero;fill:rgb(0%,0%,0%);fill-opacity:1;" d="M 16.023438 2.652344 L 3.976562 2.652344 C 1.785156 2.652344 0 4.441406 0 6.640625 L 0 13.355469 C 0 15.558594 1.785156 17.347656 3.976562 17.347656 L 16.023438 17.347656 C 18.214844 17.347656 20 15.558594 20 13.355469 L 20 6.640625 C 20 4.441406 18.214844 2.652344 16.023438 2.652344 Z M 19.183594 13.359375 C 19.183594 15.105469 17.765625 16.53125 16.023438 16.53125 L 3.976562 16.53125 C 2.234375 16.53125 0.816406 15.105469 0.816406 13.359375 L 0.816406 6.640625 C 0.816406 4.894531 2.234375 3.46875 3.976562 3.46875 L 16.023438 3.46875 C 17.765625 3.46875 19.183594 4.894531 19.183594 6.640625 Z M 19.183594 13.359375 "/>
<path style=" stroke:none;fill-rule:nonzero;fill:rgb(0%,0%,0%);fill-opacity:1;" d="M 13.617188 9.851562 L 7.960938 6.539062 C 7.835938 6.464844 7.679688 6.464844 7.550781 6.539062 C 7.425781 6.609375 7.347656 6.746094 7.347656 6.890625 L 7.347656 13.515625 C 7.347656 13.664062 7.425781 13.796875 7.550781 13.871094 C 7.613281 13.90625 7.683594 13.925781 7.753906 13.925781 C 7.828125 13.925781 7.898438 13.90625 7.960938 13.867188 L 13.617188 10.558594 C 13.742188 10.484375 13.820312 10.351562 13.820312 10.203125 C 13.820312 10.058594 13.742188 9.925781 13.617188 9.851562 Z M 8.164062 12.804688 L 8.164062 7.605469 L 12.601562 10.203125 Z M 8.164062 12.804688 "/>
</g>
</svg>
