<svg width="24" height="24" viewBox="0 0 24 24" fill="none" xmlns="http://www.w3.org/2000/svg">
<path d="M9.06996 20.6436C6.29522 20.6276 4 14.9634 4 12.0788C4 7.36674 7.53484 6.33515 8.89714 6.33515C9.51108 6.33515 10.1666 6.57624 10.7448 6.78959C11.1492 6.93841 11.5673 7.09204 11.7999 7.09204C11.9391 7.09204 12.2672 6.96135 12.5568 6.84669C13.1745 6.60078 13.9431 6.29517 14.8382 6.29517C14.8398 6.29517 14.8419 6.29517 14.8435 6.29517C15.5118 6.29517 17.5382 6.44184 18.7565 8.2714L19.0419 8.70024L18.6312 9.01016C18.0444 9.45287 16.9739 10.2605 16.9739 11.8601C16.9739 13.7548 18.1863 14.4834 18.7688 14.8338C19.0259 14.9885 19.292 15.148 19.292 15.4969C19.292 15.7246 17.4742 20.6154 14.8344 20.6154C14.1885 20.6154 13.7319 20.4212 13.3291 20.25C12.9216 20.0766 12.5701 19.9273 11.9892 19.9273C11.6948 19.9273 11.3225 20.0665 10.9283 20.2143C10.3896 20.4153 9.77992 20.6436 9.0881 20.6436H9.06996Z" fill="#6565EC"/>
<path d="M15.1178 2C15.1865 4.47889 13.4138 6.19862 11.643 6.09077C11.3513 4.11253 13.4135 2 15.1178 2Z" fill="#6565EC"/>
</svg>
